<?xml version="1.0" standalone="no"?>
<!DOCTYPE svg PUBLIC "-//W3C//DTD SVG 20010904//EN"
 "http://www.w3.org/TR/2001/REC-SVG-20010904/DTD/svg10.dtd">
<svg version="1.0" xmlns="http://www.w3.org/2000/svg"
 width="96.000000pt" height="96.000000pt" viewBox="0 0 96.000000 96.000000"
 preserveAspectRatio="xMidYMid meet">

<g transform="translate(0.000000,96.000000) scale(0.100000,-0.100000)"
fill="#000000" stroke="none">
<path d="M405 922 c-22 -11 -53 -33 -69 -50 -25 -27 -30 -40 -34 -109 -3 -53
-10 -81 -20 -89 -21 -15 -7 -49 38 -94 24 -24 41 -52 46 -74 5 -32 3 -37 -20
-45 -25 -10 -44 -50 -32 -69 3 -6 -2 -13 -12 -17 -12 -4 -1 -12 42 -26 41 -14
62 -17 69 -10 8 8 8 11 0 11 -6 0 -14 7 -17 16 -6 15 -4 15 19 0 81 -52 74
-50 68 -25 -7 26 11 19 27 -11 13 -25 -8 -46 -63 -61 l-41 -11 34 -14 c34 -15
42 -11 53 20 2 5 21 1 43 -10 38 -19 39 -20 48 -91 5 -39 6 -79 3 -87 -12 -30
-27 -16 -27 24 l0 41 -30 -35 c-34 -38 -95 -65 -112 -48 -5 5 -10 27 -9 49 1
90 -18 140 -75 200 -30 31 -54 61 -54 65 0 11 -28 10 -35 -2 -3 -5 15 -37 42
-71 92 -117 102 -141 86 -232 l-6 -39 -18 39 c-10 21 -18 46 -19 55 0 9 -4 20
-10 23 -6 4 -8 -7 -5 -27 5 -33 5 -33 -6 -5 -6 15 -15 27 -20 27 -6 0 -7 -6
-4 -12 4 -7 -1 -4 -10 7 -9 11 -21 19 -26 17 -5 -1 -8 1 -8 5 3 21 -2 33 -12
28 -5 -4 -25 9 -42 29 -41 47 -90 57 -128 27 -27 -21 -45 -71 -26 -71 5 0 0
-8 -11 -19 -18 -15 -22 -29 -22 -85 l0 -66 420 0 420 0 0 22 c0 17 -3 19 -12
10 -20 -20 -26 -14 -30 31 -3 28 0 48 10 59 13 15 13 20 1 34 -8 10 -14 38
-14 63 l0 46 -65 16 -65 16 48 8 c55 9 66 19 36 35 -20 11 -21 17 -15 80 7 66
6 68 -14 63 -11 -3 -23 -16 -26 -29 -5 -18 -14 -24 -42 -26 -34 -3 -37 -5 -47
-52 -11 -53 -36 -79 -57 -58 -9 9 -9 17 0 34 6 13 13 32 16 43 3 11 20 28 38
38 29 16 30 20 15 28 -18 11 -24 39 -7 39 6 0 10 5 10 10 0 6 -10 10 -22 10
-32 0 -14 12 24 15 17 1 34 7 36 13 2 7 -10 9 -35 5 -36 -5 -37 -5 -18 10 14
12 16 16 6 17 -11 0 -10 3 3 13 17 12 17 14 2 20 -9 4 -16 13 -16 20 0 8 -7
28 -16 45 -8 18 -12 36 -9 42 3 6 -8 22 -24 36 -17 14 -29 30 -26 35 3 4 -3
17 -15 29 l-20 20 23 0 c13 0 32 6 42 14 10 7 27 11 37 8 30 -7 21 24 -14 49
-43 31 -120 36 -173 11z m25 -72 c0 -5 -4 -10 -10 -10 -5 0 -10 5 -10 10 0 6
5 10 10 10 6 0 10 -4 10 -10z m228 -449 c25 -22 31 -71 7 -71 -9 0 -19 10 -24
23 -27 72 -24 81 17 48z m-520 -185 c15 -8 34 -23 42 -33 47 -58 45 -55 16
-43 -33 12 -39 13 -32 1 3 -5 -16 -1 -43 9 -27 11 -51 17 -54 14 -3 -3 -8 -1
-12 5 -3 6 -1 11 5 11 7 0 10 6 7 13 -2 6 5 17 17 24 26 15 22 16 54 -1z m22
-118 c0 -5 -15 -8 -32 -9 -18 0 -41 -2 -50 -4 -10 -2 -18 1 -18 6 0 5 17 9 38
10 32 0 35 2 19 12 -46 30 -48 36 -5 15 26 -13 48 -26 48 -30z m-96 -57 c4 -5
-3 -7 -14 -4 -23 6 -26 13 -6 13 8 0 17 -4 20 -9z"/>
<path d="M590 712 c0 -26 15 -52 31 -52 4 0 9 10 13 23 5 18 8 20 16 7 8 -13
10 -13 10 2 0 9 -6 19 -12 21 -8 3 -5 6 5 6 33 2 6 21 -29 21 -31 0 -34 -3
-34 -28z"/>
<path d="M761 390 c0 -8 4 -22 9 -30 12 -18 12 -2 0 25 -6 13 -9 15 -9 5z"/>
<path d="M788 363 c5 -21 7 -23 10 -9 2 10 0 22 -6 28 -6 6 -7 0 -4 -19z"/>
<path d="M230 334 c0 -10 42 -65 46 -61 8 8 -18 56 -32 61 -8 3 -14 3 -14 0z"/>
<path d="M200 310 c6 -11 13 -20 16 -20 2 0 0 9 -6 20 -6 11 -13 20 -16 20 -2
0 0 -9 6 -20z"/>
<path d="M840 274 c0 -29 3 -32 55 -44 30 -7 58 -10 62 -7 10 11 -3 19 -31 21
-14 0 -26 5 -26 9 0 5 -9 5 -21 2 -19 -6 -20 -5 -9 15 9 18 9 21 0 15 -7 -4
-16 -1 -21 6 -6 10 -9 5 -9 -17z"/>
<path d="M130 285 c0 -2 23 -16 50 -30 28 -14 56 -34 62 -45 16 -25 28 -26 28
-2 -1 37 -40 65 -111 77 -16 3 -29 3 -29 0z"/>
<path d="M856 71 c-17 -19 -16 -20 39 -31 31 -6 59 -9 62 -6 4 3 0 6 -8 6 -8
0 -27 11 -43 25 -16 14 -30 25 -31 25 -1 0 -10 -9 -19 -19z"/>
</g>
</svg>
